<?xml version="1.0" standalone="no"?>
<!DOCTYPE svg PUBLIC "-//W3C//DTD SVG 20010904//EN"
 "http://www.w3.org/TR/2001/REC-SVG-20010904/DTD/svg10.dtd">
<svg version="1.0" xmlns="http://www.w3.org/2000/svg"
 width="260.000000pt" height="260.000000pt" viewBox="0 0 260.000000 260.000000"
 preserveAspectRatio="xMidYMid meet">
<metadata>
Created by potrace 1.11, written by Peter Selinger 2001-2013
</metadata>
<g transform="translate(0.000000,260.000000) scale(0.100000,-0.100000)"
fill="#000000" stroke="none">
<path d="M1155 2393 c-69 -9 -200 -45 -263 -71 -185 -79 -328 -215 -425 -404
-52 -101 -69 -151 -103 -293 -23 -96 -27 -136 -30 -315 -1 -113 1 -225 6 -250
4 -25 10 -58 13 -75 38 -234 137 -437 281 -579 80 -78 149 -123 253 -165 109
-44 183 -56 348 -55 123 0 164 4 228 22 93 27 190 69 250 111 54 37 143 129
173 177 8 14 11 -11 11 -106 1 -69 1 -135 2 -147 1 -23 4 -23 121 -23 89 0
120 3 121 13 0 6 1 262 1 567 l1 555 -426 1 -427 1 0 -118 c0 -88 3 -119 13
-120 6 0 139 -1 294 -1 l282 -1 -5 -81 c-26 -396 -235 -614 -589 -614 -152 -1
-252 29 -361 104 -108 76 -192 193 -242 339 -18 52 -25 78 -39 145 -16 79 -21
161 -18 305 4 200 7 219 50 351 90 275 272 438 525 471 195 25 379 -24 501
-134 63 -57 131 -185 143 -269 3 -18 14 -19 150 -20 l148 -2 -6 52 c-25 240
-202 467 -437 561 -127 50 -214 66 -369 69 -80 2 -158 1 -175 -1z"/>
</g>
</svg>
